<svg xmlns="http://www.w3.org/2000/svg" viewBox="0 0 256 256" role="img" aria-labelledby="t"><title id="t">М-ТРЕНИНГ — эмблема «Панель-парус»</title><path fill="#F2C230" d="M128 24C185.44 24 232 70.56 232 128C232 185.44 185.44 232 128 232C70.56 232 24 185.44 24 128C24 70.56 70.56 24 128 24Z"/><path fill="#0A1633" d="M128 32C181.02 32 224 74.98 224 128C224 181.02 181.02 224 128 224C74.98 224 32 181.02 32 128C32 74.98 74.98 32 128 32Z"/><path fill="#1B44D8" d="M128 44C174.39 44 212 81.61 212 128C212 174.39 174.39 212 128 212C81.61 212 44 174.39 44 128C44 81.61 81.61 44 128 44Z"/><path fill="#F2C230" d="M86.82 148.5 46.86 149.74 82.09 130.84ZM130.84 82.09 149.74 46.86 148.5 86.82ZM148.5 169.18 149.74 209.14 130.84 173.91ZM107.5 86.82 106.26 46.86 125.16 82.09ZM125.16 173.91 106.26 209.14 107.5 169.18ZM153.42 89.66 187.4 68.6 166.34 102.58ZM89.66 102.58 68.6 68.6 102.58 89.66ZM82.09 125.16 46.86 106.26 86.82 107.5ZM166.34 153.42 187.4 187.4 153.42 166.34ZM102.58 166.34 68.6 187.4 89.66 153.42ZM169.18 107.5 209.14 106.26 173.91 125.16ZM173.91 130.84 209.14 149.74 169.18 148.5Z"/><path fill="#FFFFFF" d="M128 106.4 148.54 121.33 140.7 145.47H115.3L107.46 121.33Z"/><path fill="#6E8CFF" d="M129.73 103.22 142.6 107.9 151.03 118.69 165.05 113.03 151.49 95.67 130.79 88.14Z"/><path fill="#6E8CFF" d="M152.1 121.99 151.62 135.68 143.97 147.03 153.69 158.61 166 140.35 166.77 118.33Z"/><path fill="#6E8CFF" d="M141.16 149.07 128 152.84 114.84 149.07 106.82 161.89 128 167.96 149.18 161.89Z"/><path fill="#6E8CFF" d="M112.03 147.03 104.38 135.68 103.9 121.99 89.23 118.33 90 140.35 102.31 158.61Z"/><path fill="#6E8CFF" d="M104.97 118.69 113.4 107.9 126.27 103.22 125.21 88.14 104.51 95.67 90.95 113.03Z"/><path fill="#0A1633" d="M155.77 94.91 169.09 114.65 169.92 138.45 180.4 141.06 179.36 111.31 162.71 86.63Z"/><path fill="#0A1633" d="M168.05 144.18 153.39 162.95 131.01 171.09 131.77 181.87 159.74 171.69 178.07 148.23Z"/><path fill="#0A1633" d="M124.99 171.09 102.61 162.95 87.95 144.18 77.93 148.23 96.26 171.69 124.23 181.87Z"/><path fill="#0A1633" d="M86.08 138.45 86.91 114.65 100.23 94.91 93.29 86.63 76.64 111.31 75.6 141.06Z"/><path fill="#0A1633" d="M105.11 91.36 128 84.8 150.89 91.36 156.62 82.21 128 74 99.38 82.21Z"/></svg>
