<svg xmlns="http://www.w3.org/2000/svg" viewBox="0 0 1000 256" width="1000" height="256" role="img" aria-labelledby="title">
  <title id="title">М-ТРЕНИНГ — Горизонтальный логотип B (Силовой Монолит М)</title>
  <g id="symbol">
    <path fill="#111111" d="M 24 82 L 36 70 L 48 70 L 48 186 L 36 186 L 24 174 Z M 62 50 L 78 34 L 102 34 L 136 68 L 170 34 L 194 34 L 210 50 L 210 206 L 194 222 L 172 222 L 172 92 L 136 128 L 100 92 L 100 222 L 78 222 L 62 206 Z M 224 70 L 236 70 L 248 82 L 248 174 L 236 186 L 224 186 Z M 136 154 L 162 169.01 L 162 199.03 L 136 214.04 L 110 199.03 L 110 169.01 Z"/>
  </g>
  <g id="wordmark">
    <path fill="#111111" fill-rule="evenodd" d="M 292 94 L 302 84 L 312 84 L 335 123.84 L 358 84 L 368 84 L 378 94 L 378 172 L 358 172 L 358 118 L 335 157.84 L 312 118 L 312 172 L 292 172 Z M 396 125 L 402 119 L 424 119 L 424 131 L 418 137 L 396 137 Z M 442 84 L 506 84 L 506 102 L 484 102 L 484 172 L 464 172 L 464 102 L 442 102 Z M 520 84 L 553 84 A 29 29 0 0 1 553 142 L 540 142 L 540 172 L 520 172 Z M 540 102 L 553 102 A 11 11 0 0 1 553 124 L 540 124 Z M 598 84 L 656 84 L 656 102 L 618 102 L 618 119 L 648 119 L 648 137 L 618 137 L 618 154 L 656 154 L 656 172 L 598 172 Z M 674 84 L 694 84 L 694 119 L 720 119 L 720 84 L 740 84 L 740 172 L 720 172 L 720 137 L 694 137 L 694 172 L 674 172 Z M 758 84 L 778 84 L 778 138.5 L 806 90 L 806 84 L 826 84 L 826 172 L 806 172 L 806 117.5 L 778 166 L 778 172 L 758 172 Z M 844 84 L 864 84 L 864 119 L 890 119 L 890 84 L 910 84 L 910 172 L 890 172 L 890 137 L 864 137 L 864 172 L 844 172 Z M 928 84 L 982 84 L 982 102 L 948 102 L 948 172 L 928 172 Z"/>
  </g>
</svg>
