<svg xmlns="http://www.w3.org/2000/svg" viewBox="0 0 256 256" width="256" height="256" role="img" aria-labelledby="title">
  <title id="title">М-ТРЕНИНГ — Концепт B (Силовой Монолит М)</title>
  <path fill="#111111" d="M 16 82 L 28 70 L 40 70 L 40 186 L 28 186 L 16 174 Z M 54 50 L 70 34 L 94 34 L 128 68 L 162 34 L 186 34 L 202 50 L 202 206 L 186 222 L 164 222 L 164 92 L 128 128 L 92 92 L 92 222 L 70 222 L 54 206 Z M 216 70 L 228 70 L 240 82 L 240 174 L 228 186 L 216 186 Z M 128 154 L 154 169.01 L 154 199.03 L 128 214.04 L 102 199.03 L 102 169.01 Z"/>
</svg>
