<svg xmlns="http://www.w3.org/2000/svg" viewBox="0 0 600 600" width="600" height="600"><rect width="600" height="600" fill="#1B44D8"/><circle cx="330" cy="125" r="15" fill="none" stroke="#8FA6FF" stroke-width="9"/><path d="M 163.5 105.2 L 164.7 103.2 L 166.1 101.3 L 167.9 99.6 L 169.8 98.2 L 172.0 97.2 L 174.2 96.4 L 176.6 96.1 L 179.0 96.0 L 181.4 96.4 L 183.7 97.0 L 185.8 98.0 L 187.8 99.4 L 189.6 101.0 L 191.1 102.8" fill="none" stroke="#FFC61A" stroke-width="9" stroke-linecap="round"/><path d="M 316 68.0 L 340 80 L 316 92.0 Z" fill="#FFC61A"/><path d="M 388 294.5 L 405 303 L 388 311.5 Z" fill="#FFC61A"/><circle cx="239" cy="46" r="6" fill="#8FA6FF"/><circle cx="218" cy="188" r="6" fill="#FFFFFF"/><path d="M 108.0 350.0 L 122.3 360.4 L 116.8 377.1 L 99.2 377.1 L 93.7 360.4 Z" fill="none" stroke="#8FA6FF" stroke-width="9" stroke-linejoin="round"/><path d="M 274 190.5 L 297 202 L 274 213.5 Z" fill="#FFC61A"/><circle cx="111" cy="580" r="4" fill="#FFFFFF"/><circle cx="339" cy="540" r="7" fill="#FFC61A"/><path d="M 292 461 L 338 461" stroke="#FFFFFF" stroke-width="9" stroke-linecap="round"/><path d="M 296 446 L 296 476" stroke="#FFFFFF" stroke-width="11" stroke-linecap="round"/><path d="M 334 446 L 334 476" stroke="#FFFFFF" stroke-width="11" stroke-linecap="round"/><circle cx="285" cy="64" r="4" fill="#FFC61A"/><path d="M 330.0 550.2 L 329.8 553.6 L 329.2 557.0 L 328.1 560.3 L 326.4 563.3 L 324.4 566.0 L 322.0 568.5 L 319.2 570.5 L 316.1 572.1 L 312.9 573.2 L 309.5 573.9 L 306.1 574.0 L 302.7 573.6 L 299.3 572.7 L 296.2 571.3" fill="none" stroke="#8FA6FF" stroke-width="9" stroke-linecap="round"/><path d="M 168.0 205.0 L 182.3 215.4 L 176.8 232.1 L 159.2 232.1 L 153.7 215.4 Z" fill="none" stroke="#FFC61A" stroke-width="9" stroke-linejoin="round"/><circle cx="471" cy="302" r="14" fill="none" stroke="#FFC61A" stroke-width="9"/><path d="M 328 223 L 368 223" stroke="#FFFFFF" stroke-width="9" stroke-linecap="round"/><path d="M 332 209 L 332 237" stroke="#FFFFFF" stroke-width="11" stroke-linecap="round"/><path d="M 364 209 L 364 237" stroke="#FFFFFF" stroke-width="11" stroke-linecap="round"/><circle cx="304" cy="263" r="14" fill="none" stroke="#FFC61A" stroke-width="9"/><path d="M 317 490 L 329 502 L 341 478 L 353 502 L 365 478" fill="none" stroke="#FFC61A" stroke-width="9" stroke-linecap="round" stroke-linejoin="round"/><path d="M 314.0 354.0 L 315.5 355.7 L 315.6 358.5 L 313.7 361.5 L 309.8 363.3 L 304.8 362.9 L 299.9 359.7 L 296.7 353.9 L 296.6 346.4 L 300.3 338.9 L 307.6 333.5 L 317.4 331.7 L 327.7 334.8 L 336.2 342.8 L 340.6 354.5 L 339.2 367.7 L 331.7 379.7 L 318.9 387.6 L 303.2 389.1 L 287.6 383.2 L 275.6 370.5 L 270.1 352.9 L 273.1 334.0 L 284.5 317.5 L 302.7 307.3 L 324.5 306.1 L 345.3 314.8 L 360.7 332.4 L 367.2 355.9 L 362.6 380.6 L 347.1 401.4 L 323.3 413.8 L 295.7 414.6 L 269.7 402.9 L 250.9 380.4" fill="none" stroke="#FFC61A" stroke-width="9" stroke-linecap="round" stroke-linejoin="round"/><path d="M 315.0 331.0 L 332.1 343.4 L 325.6 363.6 L 304.4 363.6 L 297.9 343.4 Z" fill="none" stroke="#FFC61A" stroke-width="9" stroke-linejoin="round"/><path d="M 72 320 L 126 320" stroke="#8FA6FF" stroke-width="9" stroke-linecap="round"/><path d="M 76 305 L 76 335" stroke="#8FA6FF" stroke-width="11" stroke-linecap="round"/><path d="M 122 305 L 122 335" stroke="#8FA6FF" stroke-width="11" stroke-linecap="round"/><circle cx="159" cy="276" r="5" fill="#FFFFFF"/></svg>